<svg xmlns="http://www.w3.org/2000/svg" width="3897" height="620" viewBox="0 0 3897 620" version="1.1"><path d="M 1269.500 3 C 1265.650 4.037, 1262.162 4.911, 1261.750 4.942 C 1261.338 4.974, 1261 5.415, 1261 5.922 C 1261 7.232, 1433.684 211.951, 1442.341 220.904 C 1451.283 230.153, 1457.706 235.036, 1466.014 238.904 C 1483.928 247.243, 1502.350 247.096, 1520.500 238.469 C 1533.312 232.380, 1538.133 227.913, 1558.500 203.263 C 1561.800 199.269, 1581.400 175.863, 1602.056 151.251 C 1640.952 104.902, 1644.659 100.326, 1643.914 99.581 C 1643.168 98.835, 1601.592 83, 1600.379 83 C 1599.396 83, 1589.308 93.594, 1581.923 102.383 C 1580.590 103.969, 1579.046 105.769, 1578.491 106.383 C 1575.211 110.013, 1555.332 133.478, 1526.133 168.187 L 1492.765 207.850 1421.116 123.175 C 1381.709 76.604, 1346.947 35.350, 1343.867 31.500 C 1331.378 15.890, 1318.547 6.593, 1304.556 3.014 C 1294.255 0.380, 1279.254 0.374, 1269.500 3 M 3116.650 1.769 C 3099.061 1.976, 3093.908 2.321, 3094.268 3.269 C 3094.524 3.946, 3103.004 33.470, 3113.110 68.877 L 3131.486 133.255 3142.993 132.743 C 3151.866 132.349, 3156.043 131.663, 3161.242 129.743 C 3180.335 122.694, 3195.321 107.962, 3201.691 89.977 C 3205.102 80.349, 3206.010 62.423, 3203.651 51.289 C 3199.836 33.276, 3186.577 17.305, 3167.483 7.721 C 3156.561 2.238, 3149.272 1.385, 3116.650 1.769 M 2149.094 11.581 C 2115.718 19.329, 2080.117 35.282, 2051 55.538 C 1987.327 99.833, 1946.025 157.712, 1926.016 230.687 C 1923.807 238.742, 1922 245.718, 1922 246.190 C 1922 246.661, 1923.173 246.278, 1924.606 245.339 C 1926.266 244.251, 1928.963 239.890, 1932.037 233.323 C 1948.154 198.896, 1978.516 168.694, 2015.659 150.144 C 2027.324 144.318, 2045.709 138.506, 2060.628 135.927 C 2076.929 133.110, 2103.669 132.937, 2120.500 135.541 C 2126.550 136.476, 2132.448 137.300, 2133.606 137.371 C 2134.802 137.444, 2163.843 119.998, 2200.809 97 L 2265.905 56.500 2263.203 53.935 C 2261.716 52.525, 2260.240 51.491, 2259.921 51.639 C 2259.603 51.786, 2257.803 50.665, 2255.921 49.147 C 2249.401 43.887, 2228.103 32.275, 2212.801 25.637 C 2194.545 17.717, 2167.335 8.885, 2161.804 9.082 C 2160.537 9.128, 2154.817 10.252, 2149.094 11.581 M 2914.225 293.384 C 2914.512 381.767, 2914.974 454.308, 2915.252 454.586 C 2915.530 454.864, 2930.325 456.768, 2948.129 458.817 L 2980.500 462.542 2981.273 361.521 C 2981.698 305.960, 2981.893 244.075, 2981.707 224 L 2981.367 187.500 2978.678 179.369 C 2974.070 165.437, 2961.572 149.414, 2949.269 141.664 C 2942.923 137.667, 2931.407 134.164, 2922.042 133.383 L 2913.702 132.688 2914.225 293.384 M 1073.291 318.674 L 1017.081 340.274 1016.425 344.887 C 1016.065 347.424, 1015.115 351.975, 1014.315 355 C 1013.515 358.025, 1012.623 361.850, 1012.332 363.500 C 1011.555 367.910, 1004.728 387.501, 1000.983 396.069 C 986.413 429.404, 958.534 459.907, 929.593 474.178 C 925.347 476.272, 923.475 477.683, 924.271 478.189 C 924.947 478.618, 929.278 478.976, 933.897 478.985 C 942.523 479, 949.757 477.174, 967.500 470.501 C 987.692 462.907, 1016.132 446.254, 1036 430.390 C 1040.675 426.657, 1051.493 416.605, 1060.041 408.051 C 1090.054 378.017, 1110.867 345.570, 1127.906 302.250 C 1129.042 299.363, 1129.865 297.017, 1129.735 297.037 C 1129.606 297.057, 1104.206 306.794, 1073.291 318.674 M 458.500 311.063 C 428.800 317.593, 404.440 322.950, 404.366 322.968 C 404.293 322.986, 403.943 326.038, 403.589 329.750 C 401.316 353.594, 393.912 380.905, 384.381 400.603 C 375.594 418.764, 366.319 431.688, 351.010 447.103 C 327.909 470.364, 308.999 480.574, 280.727 485.051 C 270.058 486.740, 248.804 485.769, 238.802 483.136 C 204.461 474.092, 174.499 450.095, 153.526 414.837 C 148.902 407.064, 148.591 406.759, 147.640 409.065 C 142.377 421.826, 135.723 431.903, 127.819 439.081 L 123.876 442.661 133.186 448.581 C 165.374 469.045, 202.841 482.098, 240.851 486.089 C 254.988 487.574, 288.566 486.723, 302.500 484.526 C 346.413 477.605, 385.351 459.710, 424 428.687 C 457.633 401.690, 490.712 357.352, 508.817 315 C 515.039 300.446, 515.502 298.974, 513.817 299.095 C 513.093 299.147, 488.200 304.533, 458.500 311.063 M 3819.500 310.846 C 3790.350 317.256, 3766.003 322.823, 3765.396 323.219 C 3764.789 323.614, 3763.984 327.640, 3763.607 332.165 C 3763.229 336.690, 3762.513 342.217, 3762.015 344.446 C 3761.517 346.676, 3760.847 350.004, 3760.525 351.842 C 3757.650 368.248, 3751.371 387.430, 3744.031 402.229 C 3731.531 427.432, 3710.235 452.382, 3689 466.703 C 3660.670 485.809, 3622.270 491.244, 3590.717 480.614 C 3560.643 470.482, 3531.303 445.266, 3513.699 414.422 C 3509.583 407.210, 3508 405.552, 3508 408.452 C 3508 410.504, 3500.416 424.660, 3496.738 429.472 C 3495.045 431.688, 3491.655 435.598, 3489.204 438.163 L 3484.747 442.825 3493.124 448.207 C 3522.048 466.790, 3554.871 479.271, 3589.065 484.688 C 3605.163 487.239, 3645.669 487.239, 3661.860 484.688 C 3676.862 482.325, 3697.114 477.145, 3709.500 472.503 C 3737.971 461.832, 3771.072 441.312, 3795.365 419.273 C 3826.627 390.911, 3856.280 348.072, 3871.942 308.646 C 3875.346 300.076, 3875.558 298.957, 3873.750 299.096 C 3873.063 299.149, 3848.650 304.436, 3819.500 310.846 M 700.861 350.352 L 662.222 363.530 667.985 371.894 C 698.929 416.803, 746.608 454.413, 795.500 472.482 C 815.241 479.778, 840.785 485.202, 861 486.389 C 869.052 486.862, 869.210 486.834, 864 485.846 C 831.381 479.660, 806.949 465.521, 786.503 441 C 765.131 415.367, 749.222 381.688, 742.695 348.257 C 741.488 342.074, 740.275 337.050, 740 337.094 C 739.725 337.137, 722.113 343.103, 700.861 350.352 M 1921.370 377.701 C 1921.665 378.691, 1922.573 382.425, 1923.388 386 C 1927.771 405.232, 1937.591 432.247, 1947.063 451.129 C 1962.420 481.741, 1978.910 504.196, 2005.380 530.538 C 2027.717 552.767, 2046.335 567.063, 2072.500 582.078 C 2100.236 597.994, 2144.427 614.200, 2155.407 612.482 C 2161.587 611.515, 2189.755 602.645, 2191.185 601.215 C 2191.615 600.785, 2176.337 574.495, 2157.234 542.794 L 2122.500 485.155 2100.500 485.713 C 2071.479 486.449, 2055.356 484.410, 2034.054 477.313 C 1992.016 463.307, 1953.661 430.380, 1934 391.418 C 1930.654 384.787, 1928.389 381.654, 1925.167 379.201 C 1921.929 376.736, 1920.970 376.357, 1921.370 377.701 M 1427.035 418.750 C 1427.108 441.008, 1433.143 455.565, 1447.967 469.241 C 1473.804 493.075, 1513.733 492.969, 1538.113 469.001 C 1550.442 456.881, 1556.332 444.723, 1558.067 427.811 C 1558.634 422.286, 1558.933 417.600, 1558.731 417.398 C 1558.372 417.039, 1433.888 408, 1429.309 408 C 1427.038 408, 1427.001 408.177, 1427.035 418.750" stroke="none" fill="#045b28" fill-rule="evenodd"/><path d="M 452.638 2.585 C 431.212 7.772, 413.102 25.654, 405.639 48.993 C 403.576 55.445, 403.557 56.656, 403.429 193 C 403.357 268.625, 403.484 328.814, 403.710 326.754 C 404.022 323.907, 404.646 322.882, 406.310 322.485 C 419.978 319.218, 514.412 299.079, 514.703 299.369 C 515.471 300.138, 507.488 318.779, 500.441 332.672 C 478.240 376.440, 443.534 416.537, 405 442.939 C 372.519 465.193, 339.078 478.761, 302.500 484.526 C 288.566 486.723, 254.988 487.574, 240.851 486.089 C 202.885 482.103, 165.368 469.042, 133.280 448.640 L 124.064 442.781 120.282 445.717 C 94.073 466.060, 57.933 469.761, 29.105 455.054 C 26.741 453.847, 24.596 453.070, 24.340 453.327 C 24.083 453.583, 25.759 457.552, 28.064 462.147 C 72.318 550.362, 149.595 608.012, 237 618.015 C 251.268 619.648, 281.945 619.448, 296.070 617.629 C 326.964 613.650, 355.716 604.252, 381.829 589.596 C 419.060 568.700, 446.784 544.358, 473.053 509.500 C 504.367 467.949, 524.896 418.506, 532.999 365.127 C 536.856 339.719, 537.126 327.214, 536.808 188.500 L 536.500 54.500 533.761 46.422 C 530.256 36.087, 524.800 27.692, 515.723 18.670 C 503.035 6.057, 489.593 0.933, 469.590 1.083 C 463.491 1.129, 455.862 1.805, 452.638 2.585 M 656.724 2.566 C 645.476 5.291, 636.241 10.695, 626.982 19.968 C 618.147 28.818, 614.278 34.930, 609.873 47 L 607.500 53.500 607.215 192 C 606.905 342.615, 606.918 343.085, 612.563 374 C 619.379 411.331, 633.095 448.170, 652.776 482 C 675.182 520.514, 710.002 556.891, 748 581.485 C 757.606 587.702, 780.046 598.960, 791 603.057 C 817.564 612.993, 838.089 617.287, 867.590 619.081 C 877.540 619.686, 886.698 620.028, 887.942 619.841 C 889.851 619.553, 888.912 618.486, 881.923 613 C 866.068 600.554, 856.980 586.583, 850.373 564.500 C 847.661 555.433, 847.906 533.246, 850.838 522.500 C 853.558 512.528, 859.423 500.207, 864.879 493 L 869.043 487.500 853.648 485.807 C 795.409 479.404, 745.078 454.727, 701.073 411 C 688.364 398.371, 676.863 384.778, 667.986 371.896 L 662.224 363.533 701.362 350.271 C 722.888 342.977, 740.584 337.007, 740.687 337.005 C 740.789 337.002, 741.064 338.238, 741.297 339.750 C 741.530 341.262, 741.503 340.925, 741.238 339 C 740.972 337.075, 740.461 272.275, 740.103 195 C 739.381 39.347, 739.893 50.588, 732.867 36.150 C 727.300 24.711, 711.741 10.657, 699 5.558 C 687.464 0.941, 668.864 -0.375, 656.724 2.566 M 1066.202 3.022 C 1044.416 8.730, 1027.393 26.353, 1020.342 50.500 C 1018.726 56.036, 1018.536 67.287, 1017.888 196 C 1017.502 272.725, 1016.952 337.525, 1016.665 340 C 1016.379 342.475, 1016.360 343.549, 1016.624 342.386 C 1017.026 340.613, 1025.757 336.955, 1070.802 319.687 C 1100.336 308.366, 1125.725 298.646, 1127.221 298.087 L 1129.943 297.071 1127.892 302.286 C 1110.868 345.566, 1090.044 378.027, 1060.041 408.051 C 1042.323 425.781, 1033.003 433.509, 1014.344 445.944 C 994.863 458.926, 974.691 468.562, 951.058 476.175 C 942.413 478.960, 940.766 479.176, 931.558 478.730 C 922.250 478.279, 920.873 478.466, 913.094 481.244 C 901.882 485.248, 893.981 490.019, 886.994 497.006 C 870.270 513.730, 863.413 538.970, 869.880 560 C 878.412 587.745, 899.908 607.299, 925.932 610.990 C 937.513 612.633, 946.902 610.774, 968 602.662 C 1019.204 582.975, 1069.603 540.204, 1100.906 489.872 C 1124.794 451.462, 1141.113 407.305, 1147.424 364 C 1150.744 341.218, 1150.983 329.818, 1150.991 193.460 C 1151.001 41.538, 1151.430 51.584, 1144.307 37 C 1141.429 31.109, 1138.590 27.454, 1131.072 19.960 C 1120.393 9.317, 1114.821 5.895, 1103.415 2.978 C 1093.078 0.334, 1076.386 0.354, 1066.202 3.022 M 1680.373 2.979 C 1663.911 7.295, 1656.490 13.195, 1634.438 39.500 C 1626.600 48.850, 1613.773 64.150, 1605.935 73.500 C 1598.096 82.850, 1593.461 88.813, 1595.634 86.750 C 1597.807 84.688, 1600.018 83, 1600.548 83 C 1601.647 83, 1643.234 98.901, 1643.914 99.581 C 1644.659 100.326, 1640.952 104.902, 1602.056 151.251 C 1581.400 175.863, 1561.800 199.269, 1558.500 203.263 C 1538.133 227.913, 1533.312 232.380, 1520.500 238.469 C 1502.350 247.096, 1483.928 247.243, 1466.014 238.904 C 1457.706 235.036, 1451.283 230.153, 1442.341 220.904 C 1438.404 216.832, 1395.939 166.925, 1347.974 110 C 1300.010 53.075, 1260.621 6.339, 1260.443 6.143 C 1259.367 4.956, 1247.273 13.581, 1240.412 20.429 C 1226.547 34.266, 1220.614 48.523, 1220.826 67.500 C 1221.024 85.300, 1223.761 92.199, 1238.483 112 C 1245.561 121.520, 1424.611 334.081, 1438.900 349.927 C 1448.790 360.895, 1455.671 366.342, 1465.500 370.985 C 1475.819 375.860, 1482.497 377.392, 1493 377.293 C 1507.249 377.159, 1520.557 372.581, 1532.715 363.631 C 1535.986 361.223, 1543.125 353.961, 1548.581 347.492 C 1554.036 341.024, 1561.671 332.079, 1565.546 327.616 C 1577.628 313.700, 1742.242 117.927, 1748.776 109.703 C 1760.520 94.922, 1763.860 86.890, 1764.716 71.377 C 1765.554 56.174, 1762.510 43.138, 1755.518 32 C 1751.075 24.921, 1738.206 12.722, 1730.899 8.662 C 1717.350 1.134, 1696.398 -1.223, 1680.373 2.979 M 2054 2.520 C 1992.441 9.495, 1941.576 31.703, 1892 73.250 C 1842.053 115.108, 1808.704 168.246, 1791.466 233.439 C 1789.585 240.556, 1788.154 246.488, 1788.288 246.621 C 1788.421 246.755, 1791.674 244.425, 1795.515 241.444 C 1817.444 224.428, 1847.181 218.887, 1873.166 226.975 C 1886.951 231.265, 1906.302 244.391, 1915.268 255.534 C 1917.908 258.815, 1920.408 261.618, 1920.824 261.763 C 1921.239 261.908, 1922.832 258.308, 1924.363 253.763 C 1925.894 249.218, 1927.401 244.862, 1927.712 244.083 C 1928.065 243.200, 1927.095 243.508, 1925.139 244.901 C 1923.413 246.130, 1922 246.730, 1922 246.235 C 1922 245.739, 1923.807 238.742, 1926.016 230.687 C 1946.025 157.712, 1987.327 99.833, 2051 55.538 C 2080.338 35.128, 2116.264 19.080, 2149.362 11.599 C 2155.311 10.255, 2160.362 8.971, 2160.587 8.747 C 2161.130 8.204, 2146.056 5.333, 2132.447 3.388 C 2116.912 1.167, 2070.475 0.654, 2054 2.520 M 2720.162 3.032 C 2699.269 8.505, 2681.278 25.592, 2674.923 46 C 2663.562 82.483, 2682.308 119.121, 2718.500 131.170 L 2725.500 133.500 2827.635 133.687 L 2929.769 133.873 2937.403 136.436 C 2946.857 139.609, 2951.704 142.621, 2959.898 150.415 C 2968.273 158.381, 2975.339 169.275, 2978.678 179.369 L 2981.367 187.500 2981.707 224 C 2981.893 244.075, 2981.698 305.959, 2981.273 361.520 L 2980.500 462.539 2948.500 458.815 C 2930.900 456.767, 2916.168 455.071, 2915.762 455.045 C 2915.357 455.020, 2914.893 438.687, 2914.733 418.750 C 2914.572 398.813, 2914.456 423.675, 2914.475 474 L 2914.509 565.500 2916.869 572.500 C 2923.142 591.113, 2933.006 602.841, 2950.035 611.933 C 2967.311 621.156, 2990.919 621.818, 3009.331 613.595 C 3025.715 606.277, 3040.439 588.615, 3045.673 570 C 3047.421 563.783, 3047.500 552.501, 3047.500 310.500 C 3047.500 70.356, 3047.409 57.170, 3045.708 51 C 3041.897 37.182, 3036.178 28.103, 3024.139 16.761 C 3020.204 13.054, 3014.293 8.662, 3011.003 7.001 C 2998.649 0.765, 3005.276 1.026, 2860 1.070 C 2732.571 1.109, 2727.219 1.184, 2720.162 3.032 M 3040.099 4.709 C 3053.010 16.373, 3063.431 36.486, 3065.951 54.604 C 3066.528 58.751, 3067 78.329, 3067 98.110 L 3067 134.075 3151.750 133.767 C 3230.936 133.480, 3236.861 133.339, 3242 131.619 C 3260.334 125.480, 3276.581 111.866, 3284.018 96.412 C 3292.580 78.620, 3292.056 52.142, 3282.799 34.774 C 3276.380 22.731, 3259.745 9.011, 3245.425 3.948 L 3238.500 1.500 3189 1.374 C 3161.775 1.305, 3142.650 1.572, 3146.500 1.968 C 3159.065 3.259, 3167.113 6.420, 3178.642 14.593 C 3191.665 23.825, 3200.616 36.957, 3203.651 51.289 C 3206.010 62.423, 3205.102 80.349, 3201.691 89.977 C 3195.321 107.962, 3180.335 122.694, 3161.242 129.743 C 3156.043 131.663, 3151.866 132.349, 3142.993 132.743 L 3131.486 133.255 3113.110 68.877 C 3103.004 33.470, 3094.524 3.946, 3094.268 3.269 C 3093.908 2.322, 3099.067 1.972, 3116.650 1.749 C 3129.218 1.590, 3116.211 1.357, 3087.747 1.230 L 3035.994 1 3040.099 4.709 M 3813.217 2.449 C 3802.539 5.035, 3793.136 10.645, 3783.982 19.894 C 3774.204 29.772, 3769.056 38.552, 3765.972 50.609 C 3764.058 58.093, 3764 62.222, 3764 191.168 C 3764 317.398, 3764.087 323.968, 3765.750 323.037 C 3768.054 321.746, 3874.166 298.833, 3874.818 299.485 C 3876.360 301.027, 3861.517 332.892, 3851.289 350 C 3821.084 400.518, 3780.857 438.246, 3730.500 463.285 C 3709.861 473.548, 3686.665 480.781, 3661.860 484.688 C 3645.669 487.239, 3605.163 487.239, 3589.065 484.688 C 3554.889 479.274, 3522.047 466.789, 3493.161 448.231 L 3484.822 442.873 3477.388 448.012 C 3462.273 458.461, 3449.787 462.756, 3431.820 463.684 C 3416.276 464.488, 3402.611 461.782, 3389.783 455.361 C 3387.189 454.062, 3384.802 453, 3384.478 453 C 3382.978 453, 3399.514 483.029, 3408.157 496 C 3420.538 514.580, 3428.548 524.530, 3443.469 539.867 C 3472.059 569.254, 3501.016 588.785, 3537 602.954 C 3600.814 628.080, 3675.997 624.352, 3735.500 593.112 C 3781.035 569.205, 3814.576 538.547, 3844.477 493.500 C 3874.162 448.780, 3890.892 399.597, 3896.012 342 C 3896.781 333.352, 3897.027 286.974, 3896.812 191.500 L 3896.500 53.500 3893.686 45.538 C 3887.908 29.192, 3874.289 13.787, 3859.576 6.959 C 3855.134 4.897, 3849.115 2.713, 3846.201 2.105 C 3839.184 0.642, 3819.849 0.843, 3813.217 2.449 M 2263.257 54.140 L 2266.013 56.500 2200.425 97.303 L 2134.836 138.107 2129.554 136.925 C 2126.649 136.275, 2123.648 135.990, 2122.886 136.292 C 2122.041 136.628, 2122.347 136.873, 2123.671 136.921 C 2127.517 137.061, 2142.912 141.025, 2151.831 144.172 C 2167.046 149.541, 2180.462 156.966, 2195 168.064 C 2203.679 174.689, 2223.496 194.671, 2230.331 203.688 C 2254.679 235.809, 2266.516 275.037, 2264.676 317.500 C 2262.654 364.140, 2246.267 401.481, 2213.240 434.707 C 2186.096 462.014, 2155.564 478.115, 2120 483.875 C 2114.773 484.722, 2114.698 484.774, 2118.500 484.925 L 2122.500 485.085 2156.681 541.836 C 2175.481 573.049, 2191.006 599.208, 2191.181 599.967 C 2191.376 600.811, 2189.752 602.035, 2187 603.119 C 2184.525 604.094, 2183.077 604.916, 2183.783 604.946 C 2186.509 605.061, 2210.203 595.444, 2224.710 588.334 C 2288.268 557.184, 2336.579 508.692, 2368.008 444.500 C 2388.647 402.345, 2398 360.245, 2398 309.500 C 2398 243.735, 2382.554 192.245, 2346.324 137.231 C 2326.831 107.632, 2300.375 79.906, 2272.500 59.862 C 2262.537 52.698, 2259.051 50.540, 2263.257 54.140 M 1831.217 245.449 C 1812.061 250.088, 1793.211 266.640, 1786.032 285.125 C 1775.883 311.262, 1782.314 339.955, 1802.559 358.862 C 1815.537 370.982, 1829.333 376.302, 1848 376.384 C 1860.648 376.439, 1866.793 375.082, 1878 369.756 C 1884.698 366.573, 1888.114 364.103, 1894.110 358.108 C 1908.571 343.651, 1913.041 333.699, 1913.775 314.330 C 1914.638 291.555, 1909.494 277.458, 1895.026 262.951 C 1885.331 253.230, 1878.176 248.986, 1866.404 245.975 C 1857.368 243.664, 1839.681 243.400, 1831.217 245.449 M 51 312.507 C 32.725 316.962, 16.515 330.205, 7.643 347.929 C -0.452 364.098, -1.715 376.946, 2.979 395.335 C 6.400 408.735, 10.238 415.471, 19.889 425.013 C 33.663 438.630, 47.275 444.284, 66.500 444.372 C 78.647 444.428, 84.888 443.032, 96 437.771 C 107.828 432.172, 119.843 420.177, 125.868 407.954 C 140.774 377.717, 131.856 341.856, 104.642 322.601 C 92.796 314.220, 82.091 310.991, 66.500 311.098 C 61 311.136, 54.025 311.770, 51 312.507 M 3409.995 312.877 C 3399.363 315.748, 3389.541 321.549, 3381.061 329.965 C 3363.209 347.683, 3356.846 370.188, 3362.957 394 C 3367.496 411.686, 3376.142 424.287, 3390.110 433.573 C 3411.170 447.574, 3439.950 448.228, 3461.500 435.196 C 3468.905 430.718, 3479.394 420.165, 3483.821 412.740 C 3489.914 402.519, 3492.339 393.882, 3492.799 380.770 C 3493.578 358.507, 3488.566 345.397, 3473.569 330.479 C 3463.281 320.244, 3456.193 315.990, 3444.404 312.975 C 3434.501 310.443, 3419.171 310.399, 3409.995 312.877 M 1916.521 362.271 C 1905.789 377.506, 1890.741 387.841, 1871.500 393.194 C 1864.717 395.080, 1861.066 395.412, 1847.500 395.375 C 1833.017 395.336, 1830.647 395.073, 1822.500 392.604 C 1812.350 389.528, 1804.153 385.261, 1795.530 378.566 C 1789.499 373.882, 1787.747 373.058, 1788.482 375.250 C 1788.713 375.938, 1790.255 381.900, 1791.910 388.500 C 1805.637 443.243, 1834.358 492.316, 1876.227 532.567 C 1949.782 603.278, 2046.178 632.229, 2148 614.189 L 2152.500 613.392 2145 611.546 C 2115.459 604.273, 2080.187 588.323, 2052.500 569.718 C 2021.554 548.922, 1989.946 518.040, 1968.863 488 C 1948.746 459.337, 1931.060 419.667, 1923.388 386 C 1922.573 382.425, 1921.648 378.634, 1921.331 377.576 C 1920.873 376.046, 1921.536 376.296, 1924.572 378.799 C 1926.671 380.529, 1928.525 381.808, 1928.693 381.641 C 1928.860 381.473, 1927.923 378.673, 1926.611 375.418 C 1925.298 372.163, 1923.417 366.913, 1922.430 363.750 C 1921.442 360.587, 1920.379 358.010, 1920.067 358.021 C 1919.755 358.033, 1918.159 359.946, 1916.521 362.271 M 1426.218 465.640 L 1426.500 565.500 1429.239 573.578 C 1435.342 591.574, 1448.469 605.916, 1466.154 613.905 C 1474.775 617.800, 1482.704 619.325, 1494 619.260 C 1505.133 619.197, 1513.642 617.217, 1522.913 612.533 C 1531.203 608.346, 1535.941 604.570, 1542.764 596.713 C 1549.994 588.387, 1554.590 579.923, 1557.003 570.489 C 1558.913 563.022, 1558.994 559.614, 1558.867 492.590 C 1558.788 450.938, 1558.408 425.566, 1557.931 430.056 C 1555.203 455.742, 1535.164 478.436, 1509.391 485.028 C 1487.685 490.579, 1464.693 484.670, 1447.967 469.241 C 1433.143 455.565, 1427.108 441.008, 1427.035 418.750 C 1427.001 408.177, 1427.038 408, 1429.309 408 C 1430.579 408, 1460.041 410.025, 1494.779 412.500 C 1529.517 414.975, 1558.178 417, 1558.470 417 C 1558.761 417, 1559 405.434, 1559 391.297 L 1559 365.594 1555.250 369.203 C 1549.673 374.569, 1536.446 383.741, 1528.500 387.751 C 1511.752 396.203, 1495.911 399.291, 1482.466 396.725 C 1464.429 393.282, 1450.987 386.207, 1430.056 369.140 L 1425.935 365.781 1426.218 465.640 M 2525.378 487.090 C 2507.753 489.147, 2490.979 499.796, 2480.145 515.806 C 2471.949 527.919, 2468.758 538.446, 2468.721 553.500 C 2468.699 562.776, 2469.115 565.787, 2471.379 572.715 C 2476.784 589.248, 2490.943 605.567, 2506.226 612.877 C 2516.447 617.766, 2523.729 619.328, 2536.035 619.270 C 2561.658 619.151, 2581.280 607.088, 2593.435 583.984 C 2602.772 566.237, 2603.664 542.746, 2595.682 524.866 C 2590.437 513.119, 2576.987 499.611, 2563.750 492.798 C 2554.018 487.788, 2538.796 485.524, 2525.378 487.090" stroke="none" fill="#049242" fill-rule="evenodd"/></svg>